<svg id="Layer_2" data-name="Layer 2" xmlns="http://www.w3.org/2000/svg" viewBox="0 0 100 100"><defs><style>.cls-1{fill:#fff;}</style></defs><title>centipede</title><polygon points="93.56 41.39 100.37 34.26 94.26 36.36 88.37 34.74 88.37 16.39 93.56 16.39 100.37 9.26 94.26 11.36 88.37 9.74 88.37 0.39 13.37 0.39 13.37 9.39 6.36 11.36 0.38 9.26 7.18 16.39 13.37 16.39 13.37 34.39 6.36 36.36 0.38 34.26 7.18 41.39 13.37 41.39 13.37 60.39 6.36 62.36 0.38 60.26 7.18 67.39 13.37 67.39 13.37 86.39 6.36 88.36 0.38 86.26 7.18 93.39 13.37 93.39 13.37 100.39 88.37 100.39 88.37 93.39 93.56 93.39 100.37 86.26 94.26 88.36 88.37 86.75 88.37 67.39 93.56 67.39 100.37 60.26 94.26 62.36 88.37 60.74 88.37 41.39 93.56 41.39"/><rect class="cls-1" x="12.37" y="0.39" width="75" height="1"/><rect class="cls-1" x="13.37" y="25.39" width="75" height="1"/><rect class="cls-1" x="13.37" y="51.39" width="75" height="1"/><rect class="cls-1" x="13.37" y="77.39" width="75" height="1"/></svg>