<svg id="Layer_2" data-name="Layer 2" xmlns="http://www.w3.org/2000/svg" viewBox="0 0 100 100"><defs><style>.cls-1{fill:#fff;}</style></defs><title>centipede</title><path d="M100,10H95.06l1.05-.67L98-.35l-3.91,5L88,6.5V0H12V9.61L6.36,11.26,0.37,9l6.81,7H12V26.61a59.06,59.06,0,0,0,11.44,35l-3.52,3.24-6.36.63,9.2,3.25,4.62-2.28A59.25,59.25,0,0,0,71.39,86h6.67l-0.17,4.05L73.84,95l8.8-4.21L84.27,86H100V10ZM88,9.82L88.11,10H88V9.82Z"/><rect class="cls-1" x="12" width="75" height="1"/><rect class="cls-1" x="10.87" y="23.44" width="81.38" height="1" transform="translate(-5.14 19.79) rotate(-20.72)"/><rect class="cls-1" x="30.26" y="45.24" width="81.9" height="1" transform="translate(-1.13 89.69) rotate(-63.99)"/></svg>