<svg id="Layer_2" data-name="Layer 2" xmlns="http://www.w3.org/2000/svg" viewBox="0 0 100 100"><defs><style>.cls-1{fill:#fff;}</style></defs><title>centipede</title><path d="M100,82.87L93.88,85,88,83.36V62.13A37.64,37.64,0,0,0,76.12,34.48C79,30.95,83.55,24.36,81.87,18.6c-2.44-8.35-10.32-6.54-10.47-15-1.69,3.24-3.67,7-3.07,10.8,0.49,3.09,7.52,4.72,3.16,9.84a20.5,20.5,0,0,1-5.26,3.48,37.7,37.7,0,0,0-15.84-3.48h0a37.71,37.71,0,0,0-15.58,3.36,19.73,19.73,0,0,1-5-3.36c-4.36-5.12,2.66-6.75,3.15-9.84,0.6-3.79-1.39-7.57-3.09-10.8-0.15,8.43-8.07,6.62-10.5,15-1.64,5.62,2.79,12,5.71,15.62A37.56,37.56,0,0,0,13,62.13v21L6.22,85l-6.1-2.1L6.81,90H13v10H88V90h5.19Z"/><rect class="cls-1" x="13" y="74" width="75" height="1"/></svg>