<svg id="Layer_2" data-name="Layer 2" xmlns="http://www.w3.org/2000/svg" viewBox="0 0 100 100"><defs><style>.cls-1{fill:#fff;}</style></defs><title>centipede</title><path d="M100,8.87L93.88,11,88,9.36V0H13V9.14L6.22,11l-6.1-2.1L6.81,16H13V37.87A37.58,37.58,0,0,0,27.19,67.6c0.75,7.24,3.26,19.55,12.26,30.1a173.87,173.87,0,0,1-4.8-25.29A37.67,37.67,0,0,0,50.42,76h0a37.77,37.77,0,0,0,16-3.69,173.08,173.08,0,0,1-4.75,25.46c9.07-10.64,11.54-23.1,12.26-30.32A37.74,37.74,0,0,0,88,37.87V16h5.19Z"/><rect class="cls-1" x="13" width="75" height="1"/><rect class="cls-1" x="13" y="25" width="75" height="1"/></svg>